<svg xmlns="http://www.w3.org/2000/svg" xmlns:xlink="http://www.w3.org/1999/xlink" width="64" zoomAndPan="magnify" viewBox="0 0 48 48" height="64" preserveAspectRatio="xMidYMid meet" version="1.0"><defs><clipPath id="e3797524e7"><path d="M 0.488281 0 L 47.507812 0 L 47.507812 47.019531 L 0.488281 47.019531 Z M 0.488281 0 " clip-rule="nonzero"/></clipPath><clipPath id="5f22429a47"><path d="M 9.167969 13 L 34 13 L 34 34 L 9.167969 34 Z M 9.167969 13 " clip-rule="nonzero"/></clipPath><clipPath id="7082015872"><path d="M 14 8.28125 L 38.558594 8.28125 L 38.558594 38.402344 L 14 38.402344 Z M 14 8.28125 " clip-rule="nonzero"/></clipPath></defs><g clip-path="url(#e3797524e7)"><path fill="#ffffff" d="M 24 0 C 11.015625 0 0.488281 10.527344 0.488281 23.511719 C 0.488281 36.496094 11.015625 47.019531 24 47.019531 C 36.984375 47.019531 47.511719 36.496094 47.511719 23.511719 C 47.511719 10.527344 36.984375 0 24 0 " fill-opacity="1" fill-rule="nonzero"/></g><g clip-path="url(#5f22429a47)"><path fill="#ea6f66" d="M 29.976562 23.695312 C 29.789062 27.480469 26.515625 30.386719 22.71875 30.386719 L 18.957031 30.386719 L 18.957031 33.589844 L 22.667969 33.589844 C 28.230469 33.589844 32.976562 29.28125 33.1875 23.734375 C 33.40625 17.902344 28.71875 13.089844 22.921875 13.089844 L 9.175781 13.089844 L 9.175781 33.589844 C 10.949219 33.589844 12.382812 32.15625 12.382812 30.386719 L 12.382812 16.289062 L 22.921875 16.289062 C 26.933594 16.289062 30.175781 19.648438 29.976562 23.695312 " fill-opacity="1" fill-rule="nonzero"/></g><g clip-path="url(#7082015872)"><path fill="#292f45" d="M 22.894531 8.277344 L 14.144531 8.277344 C 14.144531 10.046875 15.578125 11.480469 17.351562 11.480469 L 22.921875 11.480469 C 29.355469 11.480469 34.84375 16.464844 35.089844 22.882812 C 35.34375 29.628906 29.917969 35.199219 23.214844 35.199219 L 17.351562 35.199219 L 17.351562 17.9375 L 14.144531 17.9375 L 14.144531 38.398438 L 23.214844 38.398438 C 31.6875 38.398438 38.550781 31.394531 38.300781 22.882812 C 38.054688 14.691406 31.105469 8.277344 22.894531 8.277344 " fill-opacity="1" fill-rule="nonzero"/></g></svg>